<svg xmlns="http://www.w3.org/2000/svg" viewBox="0 0 512 512">
  <rect x="16" y="16" width="480" height="480" rx="112" fill="#272822"/>
  <rect x="16" y="16" width="480" height="480" rx="112" fill="none" stroke="#000000" stroke-opacity="0.25" stroke-width="2"/>
  <g fill="none" stroke="#F92672" stroke-width="30" stroke-linecap="round" stroke-linejoin="round">
    <path d="M 200 150 C 160 150 160 208 160 230 C 160 248 150 256 132 256 C 150 256 160 264 160 282 C 160 304 160 362 200 362"/>
    <path d="M 312 150 C 352 150 352 208 352 230 C 352 248 362 256 380 256 C 362 256 352 264 352 282 C 352 304 352 362 312 362"/>
  </g>
  <circle cx="256" cy="256" r="24" fill="#A6E22E"/>
</svg>
