<svg xmlns="http://www.w3.org/2000/svg" viewBox="0 0 512 512">
  <rect x="16" y="16" width="480" height="480" rx="112" fill="#272822"/>
  <rect x="16" y="16" width="480" height="480" rx="112" fill="none" stroke="#000000" stroke-opacity="0.25" stroke-width="2"/>
  <path fill="none" stroke="#F92672" stroke-width="30" stroke-linecap="round" stroke-linejoin="round"
        d="M 196 150 C 156 150 156 208 156 230 C 156 248 146 256 128 256 C 146 256 156 264 156 282 C 156 304 156 362 196 362"/>
  <path fill="none" stroke="#A6E22E" stroke-width="30" stroke-linecap="round" stroke-linejoin="round"
        d="M 316 150 C 356 150 356 208 356 230 C 356 248 366 256 384 256 C 366 256 356 264 356 282 C 356 304 356 362 316 362"/>
  <circle cx="256" cy="222" r="20" fill="#AE81FF"/>
  <circle cx="256" cy="290" r="20" fill="#AE81FF"/>
</svg>
