<svg xmlns="http://www.w3.org/2000/svg" viewBox="0 0 512 512">
  <rect x="16" y="16" width="480" height="480" rx="112" fill="#272822"/>
  <rect x="16" y="16" width="480" height="480" rx="112" fill="none" stroke="#000000" stroke-opacity="0.25" stroke-width="2"/>
  <path fill="none" stroke="#F92672" stroke-width="28" stroke-linecap="round" stroke-linejoin="round"
        d="M 176 138 C 140 138 140 196 140 220 C 140 240 130 248 114 248 C 130 248 140 256 140 280 C 140 320 140 374 176 374"/>
  <g stroke-linecap="round">
    <line x1="228" y1="196" x2="292" y2="196" stroke="#F92672" stroke-width="30"/>
    <line x1="316" y1="196" x2="404" y2="196" stroke="#E6DB74" stroke-width="30"/>
    <line x1="228" y1="256" x2="292" y2="256" stroke="#F92672" stroke-width="30"/>
    <line x1="316" y1="256" x2="380" y2="256" stroke="#AE81FF" stroke-width="30"/>
    <line x1="228" y1="316" x2="292" y2="316" stroke="#F92672" stroke-width="30"/>
    <line x1="316" y1="316" x2="392" y2="316" stroke="#A6E22E" stroke-width="30"/>
  </g>
</svg>
