<svg xmlns="http://www.w3.org/2000/svg" viewBox="0 0 512 512">
  <rect x="16" y="16" width="480" height="480" rx="112" fill="#272822"/>
  <rect x="16" y="16" width="480" height="480" rx="112" fill="none" stroke="#000000" stroke-opacity="0.25" stroke-width="2"/>
  <g fill="none" stroke="#F92672" stroke-width="22" stroke-linecap="round" stroke-linejoin="round">
    <path d="M 150 158 C 120 158 120 208 120 228 C 120 246 112 253 98 253 C 112 253 120 260 120 278 C 120 298 120 348 150 348"/>
    <path d="M 362 158 C 392 158 392 208 392 228 C 392 246 400 253 414 253 C 400 253 392 260 392 278 C 392 298 392 348 362 348"/>
  </g>
  <text x="256" y="256" font-family="Segoe UI, Arial, DejaVu Sans, sans-serif" font-size="210" font-weight="800"
        fill="#F8F8F2" text-anchor="middle" dominant-baseline="central" letter-spacing="-8">JS</text>
</svg>
